# xmcd
#
# Track frame offsets: 
#        150
#        4785
#        20508
#        39708
#        67291
#        75818
#        90195
#        107626
#        128277
#        145924
#        152059
#        164770
#
# Disc length: 2413 seconds
#
# Revision: 0
# Processed by: cddbd v1.5.2PL0 Copyright (c) Steve Scherf et al.
# Submitted via: ExactAudioCopy v1.0b3
#
DISCID=8c096b0c
DTITLE=Lausitzblues - Mein bester Freund
DYEAR=2012
DGENRE=R&B
TTITLE0=Ba-Rock
TTITLE1=Hey Baby
TTITLE2=John Barleycorn
TTITLE3=Mein bester Freund
TTITLE4=Blues vom verpassten Zug
TTITLE5=Sonntag
TTITLE6=Blues vom alten Freund
TTITLE7=Und musst Du weinen
TTITLE8=Kleines Liebeslied
TTITLE9=Kurzer Traum
TTITLE10=Blackstream
TTITLE11=I'm a man
EXTD=
EXTT0=
EXTT1=
EXTT2=
EXTT3=
EXTT4=
EXTT5=
EXTT6=
EXTT7=
EXTT8=
EXTT9=
EXTT10=
EXTT11=
PLAYORDER=
